<?xml version="1.0" encoding="UTF-8" standalone="no"?>
<svg
   xmlns:dc="http://purl.org/dc/elements/1.1/"
   xmlns:cc="http://creativecommons.org/ns#"
   xmlns:rdf="http://www.w3.org/1999/02/22-rdf-syntax-ns#"
   xmlns:svg="http://www.w3.org/2000/svg"
   xmlns="http://www.w3.org/2000/svg"
   viewBox="0 0 500 500"
   height="500"
   width="500"
   xml:space="preserve"
   id="svg2"
   version="1.1"><metadata
     id="metadata8"><rdf:RDF><cc:Work
         rdf:about=""><dc:format>image/svg+xml</dc:format><dc:type
           rdf:resource="http://purl.org/dc/dcmitype/StillImage" /></cc:Work></rdf:RDF></metadata><defs
     id="defs6"><clipPath
       id="clipPath14"
       clipPathUnits="userSpaceOnUse"><path
         id="path12"
         d="M 0,8.039989 H 375 V 383.03998 H 0 Z" /></clipPath><clipPath
       id="clipPath24"
       clipPathUnits="userSpaceOnUse"><path
         style="clip-rule:evenodd"
         id="path22"
         d="M 0,0 H 1562.5 V 1562.5 H 0 Z" /></clipPath><clipPath
       id="clipPath36"
       clipPathUnits="userSpaceOnUse"><path
         style="clip-rule:evenodd"
         id="path34"
         d="M 0,0 H 1562.5 V 1562.5 H 0 Z" /></clipPath><clipPath
       id="clipPath48"
       clipPathUnits="userSpaceOnUse"><path
         style="clip-rule:evenodd"
         id="path46"
         d="M 447.07312,825.03302 H 1362.5631 V 1285.2 H 447.07312 Z" /></clipPath><clipPath
       id="clipPath60"
       clipPathUnits="userSpaceOnUse"><path
         style="clip-rule:evenodd"
         id="path58"
         d="M 0,0 H 1562.5 V 1562.5 H 0 Z" /></clipPath></defs><g
     clip-path="url(#clipPath14)"
     transform="matrix(1.3333333,0,0,-1.3333333,0,510.71997)"
     id="g10"><g
       transform="matrix(0.31999998,0,0,0.31999998,0,9.434666e-6)"
       id="g16"><g
         id="g18"><g
           clip-path="url(#clipPath24)"
           id="g20"><g
             transform="scale(3.125)"
             id="g26"><path
               id="path28"
               style="fill:#ffffff;fill-opacity:1;fill-rule:nonzero;stroke:none"
               d="M 0,0 H 500 V 500 H 0 Z" /></g></g></g><g
         id="g30"><g
           clip-path="url(#clipPath36)"
           id="g32"><g
             transform="scale(3.125)"
             id="g38"><path
               id="path40"
               style="fill:#ffffff;fill-opacity:1;fill-rule:nonzero;stroke:none"
               d="M 0,0 H 500 V 500 H 0 Z" /></g></g></g><g
         id="g42"><g
           clip-path="url(#clipPath48)"
           id="g44"><g
             transform="matrix(-3.0546608,0,0,-3.0546608,1362.5253,1285.2)"
             id="g50"><path
               id="path52"
               style="fill:#000000;fill-opacity:1;fill-rule:nonzero;stroke:none"
               d="m 299.99899,149.998 h -16.12701 c 0,-73.817 -60.056,-133.873 -133.872,-133.873 -73.818996,0 -133.874995,60.056 -133.874995,133.873 H -0.001 C -0.001,67.289001 67.289001,0 149.99899,0 c 82.70999,0 150,67.289001 150,149.998 z" /></g></g></g><g
         id="g54"><g
           clip-path="url(#clipPath60)"
           id="g56"><g
             transform="matrix(4.8438625,0,0,4.8438625,125.73707,-344.43396)"
             id="g62"><text
               id="text66"
               style="font-variant:normal;font-weight:normal;font-size:245.13000488px;font-family:Montserrat;-inkscape-font-specification:Montserrat-Regular;writing-mode:lr-tb;fill:#000000;fill-opacity:1;fill-rule:nonzero;stroke:none"
               transform="translate(0,259)"><tspan
                 id="tspan64"
                 y="0"
                 x="0">G</tspan></text>
</g><g
             transform="matrix(-4.8438625,0,0,-4.8438625,1436.688,1576.9774)"
             id="g68"><text
               id="text72"
               style="font-variant:normal;font-weight:normal;font-size:245.13000488px;font-family:Montserrat;-inkscape-font-specification:Montserrat-Regular;writing-mode:lr-tb;fill:#000000;fill-opacity:1;fill-rule:nonzero;stroke:none"
               transform="translate(0,259)"><tspan
                 id="tspan70"
                 y="0"
                 x="0">G</tspan></text>
</g><g
             transform="matrix(4.8438625,0,0,4.8438625,-257.4006,1375.2893)"
             id="g74"><path
               id="path76"
               style="fill:#ffffff;fill-opacity:1;fill-rule:nonzero;stroke:none"
               d="M 75.301788,-12.3524 H 353.54196 V 45.611439 H 75.301788 V -12.3524" /></g><g
             transform="matrix(4.8438625,0,0,4.8438625,-235.22339,1361.3851)"
             id="g78"><text
               id="text82"
               style="font-variant:normal;font-weight:normal;font-size:28.70000076px;font-family:Montserrat;-inkscape-font-specification:Montserrat-Regular;writing-mode:lr-tb;fill:#000000;fill-opacity:1;fill-rule:nonzero;stroke:none"
               transform="translate(98.265625,29)"><tspan
                 id="tspan80"
                 y="0"
                 x="0 31.332245 64.557861 90.611618 123.46431 151.81306 184.29282 200.96576">GOLDEN G</tspan></text>
</g></g></g></g></g></svg>